<svg width="102" height="31" viewBox="0 0 102 31" fill="none" xmlns="http://www.w3.org/2000/svg">
<path d="M7.63412 30.6074C7.05849 30.6074 6.77008 30.3594 6.77008 29.861V29.7045C6.77008 29.3914 7.03336 28.9195 7.55873 28.291C8.10922 27.6373 8.38446 26.9823 8.38446 26.3286V5.68086H6.39431C5.81869 5.68086 5.29333 5.93008 4.81703 6.42731C4.37149 6.91675 4.00411 7.47276 3.72801 8.07552C3.4767 8.65101 3.16555 9.18797 2.78978 9.6852C2.41401 10.1824 2.03824 10.4316 1.66246 10.4316H1.02461C0.323329 10.4316 0.00978728 10.0512 0.0851809 9.29271L0.836724 3.95319C0.910921 3.14294 1.33695 2.7372 2.11363 2.7372H21.4168C22.1671 2.7372 22.5932 3.14294 22.6925 3.95319L23.4823 9.33124C23.5314 9.67195 23.4692 9.94646 23.2933 10.1559C23.1185 10.3389 22.8684 10.4304 22.5429 10.4304H21.9039C21.5293 10.4304 21.1535 10.1824 20.7777 9.68399C20.402 9.18556 20.0765 8.65101 19.8012 8.07552C19.526 7.47354 19.1502 6.92454 18.6751 6.42611C18.1988 5.93008 17.6734 5.68086 17.0978 5.68086H15.1448V26.3286C15.1448 26.9823 15.408 27.6373 15.9334 28.291C16.4839 28.9195 16.7591 29.3902 16.7591 29.7045V29.861C16.7591 30.3594 16.46 30.6074 15.858 30.6074H7.63412ZM39.4287 26.3286C39.5041 26.9571 39.6417 27.4675 39.8416 27.86C40.0677 28.226 40.2796 28.462 40.4806 28.5667C40.7056 28.6715 40.9054 28.8015 41.0814 28.9592C41.2561 29.1157 41.3447 29.312 41.3447 29.548C41.3447 30.4112 39.9301 30.8434 37.1011 30.8434C35.9486 30.8434 35.0846 30.6989 34.509 30.41C33.9585 30.1235 33.6078 29.6395 33.4582 28.9592C32.5056 30.3197 30.9164 30.9999 28.6881 30.9999C26.5854 30.9999 24.8705 30.4895 23.5422 29.4685C22.2413 28.4488 21.5915 26.9703 21.5915 25.0332C21.5915 23.149 22.2413 21.6838 23.5422 20.6363C24.8454 19.5648 26.4478 19.0278 28.3506 19.0278C29.8274 19.0278 31.0911 19.3541 32.1442 20.0091V19.8911C31.8929 17.3002 31.6057 15.5472 31.279 14.6298C30.9798 13.7148 30.3779 13.2573 29.4767 13.2573C28.9011 13.2573 28.438 13.5318 28.0873 14.0808C27.7334 14.6383 27.4674 15.2474 27.2987 15.8867C27.1434 16.5515 26.8347 17.1702 26.3976 17.6927C25.9464 18.2429 25.3456 18.5174 24.5953 18.5174C23.8186 18.5174 23.1808 18.2814 22.6805 17.8107C22.2042 17.3399 21.9661 16.7247 21.9661 15.9662C21.9661 14.448 22.6925 13.3091 24.1441 12.5506C25.5958 11.7656 27.3741 11.3731 29.4767 11.3731C31.9803 11.3731 34.0458 12.0919 35.6734 13.5318C37.3249 14.9453 38.3026 16.868 38.603 19.3023L39.4287 26.3286ZM30.7536 28.9978C31.3293 28.9978 31.7924 28.71 32.143 28.1345C32.5188 27.559 32.7055 26.9041 32.7055 26.1721L32.5559 24.3662C32.3058 22.1942 31.5303 21.1083 30.2283 21.1083C29.6527 21.1083 29.1895 21.3563 28.8389 21.8547C28.4882 22.3243 28.3123 22.966 28.3123 23.7774C28.3123 25.2426 28.5253 26.4863 28.9514 27.5061C29.4013 28.5005 30.0033 28.999 30.7536 28.999V28.9978ZM42.9889 30.6074C42.4121 30.6074 42.1249 30.3594 42.1249 29.861V29.7045C42.1249 29.3914 42.3619 28.9195 42.8382 28.291C43.3384 27.6373 43.5885 26.9823 43.5885 26.3286V8.38975C43.5885 7.70952 43.3384 7.05457 42.8382 6.42731C42.3619 5.77236 42.1249 5.31486 42.1249 5.0524V4.89589C42.1249 4.60694 42.4002 4.30595 42.9507 3.99292L48.6207 1.08779C49.1473 0.853022 49.5602 0.839779 49.8605 1.04927C50.1861 1.23227 50.3488 1.52001 50.3488 1.9125V26.3286C50.3488 26.9823 50.6241 27.6373 51.1745 28.291C51.725 28.9195 52.0003 29.3902 52.0003 29.7045V29.861C52.0003 30.3594 51.7011 30.6074 51.1003 30.6074H42.9889ZM73.5844 27.3098C73.7101 27.4928 74.0858 27.8335 74.7117 28.3308C75.3627 28.828 75.6882 29.2855 75.6882 29.7045V29.861C75.6882 30.3594 75.401 30.6074 74.8242 30.6074H66.9378C66.3622 30.6074 66.0738 30.3462 66.0738 29.8225V29.7045C66.0738 29.3914 66.2616 29.011 66.6374 28.5655C67.0132 28.096 67.0886 27.6758 66.8624 27.3098L63.5582 22.1677L61.6794 23.9737V26.3286C61.6794 26.9823 61.9546 27.6373 62.5063 28.291C63.082 28.9195 63.3704 29.3902 63.3704 29.7045V29.861C63.3704 30.3594 63.07 30.6074 62.4692 30.6074H54.3566C53.7559 30.6074 53.4555 30.3594 53.4555 29.861V29.7045C53.4555 29.3914 53.7068 28.9195 54.207 28.291C54.7073 27.6373 54.9586 26.9823 54.9586 26.3286V8.38975C54.9586 7.70952 54.657 7.05457 54.0563 6.42731C53.4555 5.77236 53.1551 5.31486 53.1551 5.0524V4.89589C53.1551 4.60694 53.4304 4.30595 53.9809 3.99292L59.992 1.08779C60.5174 0.878305 60.9302 0.866266 61.2306 1.04927C61.531 1.23227 61.6818 1.52001 61.6818 1.9125V20.5581L66.7511 16.0047C67.0515 15.7952 67.164 15.534 67.0898 15.2198C67.044 14.9148 66.9138 14.629 66.714 14.3951C66.5184 14.1041 66.3181 13.8163 66.1133 13.5318C65.9122 13.2188 65.8129 12.9419 65.8129 12.7071V12.5506C65.8129 12.0269 66.1001 11.7656 66.6757 11.7656H72.6103C73.1847 11.7656 73.4731 12.0136 73.4731 12.5121V12.6686C73.4731 12.9816 73.2984 13.3091 72.9477 13.6498C72.5971 13.9628 72.0969 14.3433 71.4459 14.7875C70.9112 15.1345 70.4086 15.529 69.944 15.9662L67.5397 18.2814L73.5844 27.3098ZM81.1573 9.44922C79.8804 9.44922 78.8416 9.08322 78.0398 8.35002C77.238 7.59153 76.8383 6.64884 76.8383 5.52435C76.8383 4.39865 77.2392 3.46921 78.0398 2.7372C78.8416 1.97872 79.8804 1.59827 81.1573 1.59827C82.409 1.59827 83.4358 1.97751 84.2365 2.7372C85.0383 3.46921 85.438 4.39865 85.438 5.52435C85.438 6.64884 85.0383 7.59153 84.2365 8.35002C83.4346 9.08322 82.409 9.44922 81.1573 9.44922ZM77.1387 30.6074C76.5379 30.6074 76.2375 30.3594 76.2375 29.861V29.7045C76.2375 29.3914 76.4889 28.9063 76.9891 28.2525C77.4893 27.5988 77.7394 26.9438 77.7394 26.2901V18.8316C77.7394 18.1514 77.4893 17.4964 76.9891 16.8692C76.4877 16.2142 76.2375 15.7688 76.2375 15.5328V15.3763C76.2375 15.0632 76.5248 14.7623 77.1016 14.4733L82.7717 11.5694C83.2982 11.3334 83.7111 11.3069 84.0115 11.4911C84.3118 11.6741 84.4626 11.9751 84.4626 12.3941V26.2901C84.4626 26.9438 84.7379 27.5976 85.2884 28.2525C85.864 28.9063 86.1524 29.3902 86.1524 29.7045V29.861C86.1524 30.3582 85.8389 30.6074 85.213 30.6074H77.1387ZM95.5611 30.9999C93.6583 30.9999 92.1576 30.3715 91.0554 29.1157C89.9783 27.86 89.4398 26.0673 89.4398 23.7377V14.4348H88.0133C87.7787 14.4403 87.5507 14.3559 87.3755 14.1988C87.2233 14.0108 87.1431 13.7742 87.1493 13.5318V12.6686C87.1493 12.0666 87.4377 11.7656 88.0133 11.7656H88.7266C89.879 11.7656 90.8687 11.4117 91.6944 10.7061C92.5202 9.97174 93.0587 9.00497 93.3088 7.80102C93.4345 7.12078 93.7719 6.78007 94.3224 6.78007H95.1865C95.8626 6.78007 96.2001 7.12078 96.2001 7.80102V11.7656H100.069C100.319 11.7656 100.519 11.8571 100.67 12.0401C100.845 12.1966 100.933 12.4061 100.933 12.6686V13.5318C100.936 13.655 100.913 13.7775 100.868 13.892C100.823 14.0065 100.756 14.1108 100.67 14.1988C100.592 14.2781 100.498 14.3401 100.394 14.3808C100.291 14.4214 100.18 14.4398 100.069 14.4348H96.2001V23.8557C96.2001 24.5094 96.3629 25.0332 96.6884 25.4256C97.0139 25.7928 97.4148 25.9758 97.8899 25.9758C98.9669 25.9758 99.7927 25.4919 100.369 24.5227C100.544 24.2879 100.744 24.1567 100.97 24.1302C101.195 24.0784 101.383 24.1181 101.533 24.2482C101.709 24.3794 101.796 24.5612 101.796 24.7984C101.796 26.4466 101.234 27.8986 100.106 29.1555C99.0052 30.3847 97.4902 30.9999 95.5611 30.9999Z" fill="white"/>
</svg>
